<?xml version="1.0" encoding="UTF-8"?><svg height="45" width="60" id="Layer_1" xmlns="http://www.w3.org/2000/svg" viewBox="0 0 6.49 13.19"><defs><style>.cls-1{fill:#fff;}</style></defs><path class="cls-1" d="M.94.94c0-.31.06-.44.17-.56C1.36.13,1.91,0,3,0c1,0,1.91.17,2.43.46.17.1.23.27.23.67,0,.49-.03.69-.07.81-.04.11-.09.23-.23.34.06.33.11.74.53,1.48.37.67.5,1.21.5,1.63,0,.2-.01.43-.04.67.1.31.16.56.16.7,0,.41-.3.73-.54.73-.13,0-.24-.03-.36-.11.06.21.09.36.09.47,0,.46-.29.83-.71.83-.11,0-.21-.01-.44-.17.01.57-.33.9-.76.9-.26,0-.51-.09-.76-.31.01.56.01,1.18.01,2.23,0,.68-.07,1.18-.16,1.4-.11.29-.31.47-.56.47-.27,0-.54-.14-.64-.46-.07-.21-.14-.67-.2-1.47-.09-1.09-.16-2-.26-2.88-.57-.5-.81-.8-1-1.56C.07,6.25,0,5.85,0,5.54c0-.39.07-.8.21-1.14.17-.44.66-1.21.96-1.57.21-.26.26-.4.26-.61-.34-.11-.49-.44-.49-.86v-.41ZM5.37.98c0-.21-.04-.31-.21-.39-.61-.23-1.33-.31-2.16-.31-.67,0-1.28.11-1.51.2-.17.07-.26.2-.26.43v.54c0,.31.13.4.27.4.49-.16,1.08-.23,1.61-.23.63,0,1.37.11,1.71.26.24.11.3.14.34.14.1,0,.2-.13.2-.53v-.51ZM1.71,2.27c0,.21-.09.44-.34.77-.31.4-.71,1.07-.88,1.46-.16.36-.2.69-.2,1.03,0,.21.04.6.2,1.2.2.76.47,1.06,1.01,1.46.57.41.88.54,1.16.54.2,0,.33-.16.33-.46,0-.36-.09-.64-.46-.93l-.17-.13c-.11-.09-.17-.17-.27-.39-.06-.13-.09-.21-.09-.3s.04-.16.13-.24c.29-.29.51-.56.74-.91.23-.37.34-.74.34-1.33,0-.11-.01-.31-.04-.53v-.03c0-.1.06-.16.13-.16.09,0,.14.06.16.17.03.16.04.41.04.59,0,.57-.09,1.03-.69,1.86.2,0,.3.09.44.19,0-.51.26-.83.61-.83.06,0,.19.01.33.06-.01-.39.23-.71.64-.71.3,0,.59.19.91.59.11.14.23.29.34.44v-.24c0-.44-.19-1.06-.46-1.5-.41-.71-.51-1.2-.57-1.64-.41-.19-.64-.24-1-.3-.21-.04-.73-.07-.94-.07s-.97.03-1.41.19v.17ZM4.81,4.9c-.2,0-.34.14-.34.37,0,.13.06.24.13.33.07.09.26.3.63.91.34.57.49.71.67.71s.33-.26.33-.51c0-.3-.17-.7-.59-1.21-.39-.47-.6-.6-.83-.6ZM3.91,5.58c-.21,0-.39.21-.39.49,0,.14.1.37.24.6.14.24.39.7.69,1.31.16.33.37.41.54.41.24,0,.4-.29.4-.51s-.07-.64-.41-1.21c-.53-.9-.7-1.08-1.07-1.08ZM2.74,7.14c.37.29.53.76.53,1.17,0,.17-.07.39-.17.51.23.23.43.3.69.3s.44-.23.44-.54c0-.24-.13-.69-.24-.91-.16-.33-.36-.7-.44-.84-.27-.46-.47-.61-.77-.61-.2,0-.49.21-.49.44.06.11.14.24.29.36l.17.13ZM1.54,8.55c.09.91.16,1.8.21,2.7.07.81.11,1.17.16,1.34.06.23.2.31.36.31.14,0,.27-.09.36-.31.06-.16.11-.57.11-1.3,0-1.04-.01-1.7-.04-2.28-.33-.01-.67-.1-1.16-.46Z"/></svg>