<?xml version="1.0" encoding="UTF-8"?><svg height="50" width="50" id="Layer_1" xmlns="http://www.w3.org/2000/svg" viewBox="0 0 13.19 6.49"><defs><style>.cls-1{fill:#fff;}</style></defs><path class="cls-1" d="M1.36.94c.41,0,.74.14.86.49.21,0,.36-.04.61-.26.36-.3,1.13-.79,1.57-.96.34-.14.76-.21,1.14-.21.31,0,.71.07,1.28.21.76.19,1.06.43,1.56,1,.88.1,1.8.17,2.88.26.8.06,1.26.13,1.47.2.31.1.46.37.46.64,0,.24-.19.44-.47.56-.21.09-.71.16-1.4.16-1.04,0-1.67,0-2.23-.01.23.24.31.5.31.76,0,.43-.33.77-.9.76.16.23.17.33.17.44,0,.43-.37.71-.83.71-.11,0-.26-.03-.47-.09.09.11.11.23.11.36,0,.24-.31.54-.73.54-.14,0-.39-.06-.7-.16-.24.03-.47.04-.67.04-.41,0-.96-.13-1.63-.5-.74-.41-1.16-.47-1.48-.53-.11.14-.23.19-.34.23-.13.04-.33.07-.81.07-.4,0-.57-.06-.67-.23-.29-.51-.46-1.43-.46-2.43,0-1.08.13-1.64.39-1.88.11-.11.24-.17.56-.17h.41ZM1.5,5.37c.4,0,.53-.1.53-.2,0-.04-.03-.1-.14-.34-.14-.34-.26-1.08-.26-1.71,0-.53.07-1.13.23-1.61,0-.14-.09-.27-.4-.27h-.54c-.23,0-.36.09-.43.26-.09.23-.2.84-.2,1.51,0,.83.09,1.54.31,2.16.07.17.17.21.39.21h.51ZM2.1,1.71c-.16.44-.19,1.2-.19,1.41s.03.73.07.94c.06.36.11.59.3,1,.44.06.93.16,1.64.57.44.27,1.06.46,1.5.46h.24c-.16-.11-.3-.23-.44-.34-.4-.33-.59-.61-.59-.91,0-.41.33-.66.71-.64-.04-.14-.06-.27-.06-.33,0-.36.31-.61.83-.61-.1-.14-.19-.24-.19-.44-.83.6-1.28.69-1.86.69-.17,0-.43-.01-.59-.04-.11-.01-.17-.07-.17-.16,0-.07.06-.13.16-.13h.03c.21.03.41.04.53.04.59,0,.96-.11,1.33-.34.36-.23.63-.46.91-.74.09-.09.19-.13.24-.13.09,0,.17.03.3.09.21.1.3.16.39.27l.13.17c.29.37.57.46.93.46.3,0,.46-.13.46-.33,0-.27-.13-.59-.54-1.16-.4-.54-.7-.81-1.46-1.01-.6-.16-.98-.2-1.2-.2-.34,0-.67.04-1.03.2-.39.17-1.06.57-1.46.88-.33.26-.56.34-.77.34h-.17ZM5.5,5.64c.51.41.91.59,1.21.59.26,0,.51-.14.51-.33s-.14-.33-.71-.67c-.61-.37-.83-.56-.91-.63-.09-.07-.2-.13-.33-.13-.23,0-.37.14-.37.34,0,.23.13.44.6.83ZM6.67,4.98c.57.34.98.41,1.21.41s.51-.16.51-.4c0-.17-.09-.39-.41-.54-.61-.3-1.07-.54-1.31-.69-.23-.14-.46-.24-.6-.24-.27,0-.49.17-.49.39,0,.37.19.54,1.08,1.07ZM7.01,2.57c-.11-.14-.24-.23-.36-.29-.23,0-.44.29-.44.49,0,.3.16.5.61.77.14.09.51.29.84.44.23.11.67.24.91.24.31,0,.54-.19.54-.44s-.07-.46-.3-.69c-.13.1-.34.17-.51.17-.41,0-.88-.16-1.17-.53l-.13-.17ZM9.01,2.7c.59.03,1.24.04,2.28.04.73,0,1.14-.06,1.3-.11.23-.09.31-.21.31-.36,0-.16-.09-.3-.31-.36-.17-.04-.53-.09-1.34-.16-.9-.06-1.78-.13-2.7-.21.36.49.44.83.46,1.16Z"/></svg>