<?xml version="1.0" encoding="UTF-8"?><svg height="35" width="50" id="Layer_1" xmlns="http://www.w3.org/2000/svg" viewBox="0 0 13.19 6.49"><defs><style>.cls-1{fill:#fff;}</style></defs><path class="cls-1" d="M12.25.94c.31,0,.44.06.56.17.26.24.39.8.39,1.88,0,1-.17,1.91-.46,2.43-.1.17-.27.23-.67.23-.49,0-.69-.03-.81-.07-.11-.04-.23-.09-.34-.23-.33.06-.74.11-1.48.53-.67.37-1.21.5-1.63.5-.2,0-.43-.01-.67-.04-.31.1-.56.16-.7.16-.41,0-.73-.3-.73-.54,0-.13.03-.24.11-.36-.21.06-.36.09-.47.09-.46,0-.83-.29-.83-.71,0-.11.01-.21.17-.44-.57.01-.9-.33-.9-.76,0-.26.09-.51.31-.76-.56.01-1.18.01-2.23.01-.68,0-1.18-.07-1.4-.16C.19,2.75,0,2.55,0,2.31c0-.27.14-.54.46-.64.21-.07.67-.14,1.47-.2,1.09-.09,2-.16,2.88-.26.5-.57.8-.81,1.56-1C6.94.07,7.34,0,7.65,0c.39,0,.8.07,1.14.21.44.17,1.21.66,1.57.96.26.21.4.26.61.26.11-.34.44-.49.86-.49h.41ZM12.2,5.37c.21,0,.31-.04.39-.21.23-.61.31-1.33.31-2.16,0-.67-.11-1.28-.2-1.51-.07-.17-.2-.26-.43-.26h-.54c-.31,0-.4.13-.4.27.16.49.23,1.08.23,1.61,0,.63-.11,1.37-.26,1.71-.11.24-.14.3-.14.34s.13.2.53.2h.51ZM10.92,1.71c-.21,0-.44-.09-.77-.34-.4-.31-1.07-.71-1.46-.88-.36-.16-.69-.2-1.03-.2-.21,0-.6.04-1.2.2-.76.2-1.06.47-1.46,1.01-.41.57-.54.88-.54,1.16,0,.2.16.33.46.33.36,0,.64-.09.93-.46l.13-.17c.09-.11.17-.17.39-.27.13-.06.21-.09.3-.09.06,0,.16.04.24.13.29.29.56.51.91.74.37.23.74.34,1.33.34.11,0,.31-.01.53-.04h.03c.1,0,.16.06.16.13s-.06.14-.17.16c-.16.03-.41.04-.59.04-.57,0-1.03-.09-1.86-.69,0,.2-.09.3-.19.44.51,0,.83.26.83.61,0,.06-.01.19-.06.33.39-.01.71.23.71.64,0,.3-.19.59-.59.91-.14.11-.29.23-.44.34h.24c.44,0,1.06-.19,1.5-.46.71-.41,1.2-.51,1.64-.57.19-.41.24-.64.3-1,.04-.21.07-.73.07-.94,0-.21-.03-.97-.19-1.41h-.17ZM8.29,4.81c0-.2-.14-.34-.37-.34-.13,0-.24.06-.33.13-.09.07-.3.26-.91.63-.57.34-.71.49-.71.67s.26.33.51.33c.3,0,.7-.17,1.21-.59.47-.39.6-.6.6-.83ZM7.61,3.91c0-.21-.21-.39-.49-.39-.14,0-.37.1-.6.24-.24.14-.7.39-1.31.69-.33.16-.41.37-.41.54,0,.24.29.4.51.4s.64-.07,1.21-.41c.9-.53,1.08-.7,1.08-1.07ZM6.05,2.74c-.29.37-.76.53-1.17.53-.17,0-.39-.07-.51-.17-.23.23-.3.43-.3.69,0,.26.23.44.54.44.24,0,.69-.13.91-.24.33-.16.7-.36.84-.44.46-.27.61-.47.61-.77,0-.2-.21-.49-.44-.49-.11.06-.24.14-.36.29l-.13.17ZM4.64,1.54c-.91.09-1.8.16-2.7.21-.81.07-1.17.11-1.34.16-.23.06-.31.2-.31.36,0,.14.09.27.31.36.16.06.57.11,1.3.11,1.04,0,1.7-.01,2.28-.04.01-.33.1-.67.46-1.16Z"/></svg>